<svg xmlns="http://www.w3.org/2000/svg" xmlns:xlink="http://www.w3.org/1999/xlink" width="16" height="16" viewBox="0 0 16 16"><defs><clipPath id="a"><rect width="16" height="16" transform="translate(1154 3346)" fill="#fff"/></clipPath></defs><g transform="translate(-1154 -3346)" clip-path="url(#a)"><path d="M12.5,7h-.75V4.75a4.75,4.75,0,0,0-9.5,0V7H1.5A1.5,1.5,0,0,0,0,8.5v6A1.5,1.5,0,0,0,1.5,16h11A1.5,1.5,0,0,0,14,14.5v-6A1.5,1.5,0,0,0,12.5,7ZM9.25,7H4.75V4.75a2.25,2.25,0,0,1,4.5,0Z" transform="translate(1155 3346)" fill="#fff"/></g></svg>