<svg xmlns="http://www.w3.org/2000/svg" width="16" height="14.223" viewBox="0 0 16 14.223">
  <path id="eye-slash-solid" d="M7.963,10.889l.9,1.293q-.433.041-.869.041A9.055,9.055,0,0,1,.184,7.788a1.333,1.333,0,0,1,0-1.354A8.984,8.984,0,0,1,2.851,3.586L4.437,5.851a3.78,3.78,0,0,0,3.526,5.038Zm7.852-3.1a9.009,9.009,0,0,1-3.755,3.485h0l1.152,1.644a.667.667,0,0,1-.164.928l-.364.255a.667.667,0,0,1-.928-.164L2.787,1.3A.667.667,0,0,1,2.951.376L3.315.121a.667.667,0,0,1,.928.164L5.661,2.3A9.168,9.168,0,0,1,8,2a9.055,9.055,0,0,1,7.815,4.434,1.333,1.333,0,0,1,0,1.354Zm-4.038-.677A3.78,3.78,0,0,0,6.59,3.6l.536.752a2.894,2.894,0,0,1,2.233.206h0a1.189,1.189,0,1,0,1.189,1.189h0a2.888,2.888,0,0,1-.229,3.082h0l.536.752A3.763,3.763,0,0,0,11.777,7.111Zm-4.5,2.8L5.124,6.833A2.89,2.89,0,0,0,7.278,9.909Z" transform="translate(0 0)"/>
</svg>
