<?xml version="1.0" encoding="UTF-8"?>
<svg width="535px" height="141px" viewBox="0 0 535 141" version="1.1" xmlns="http://www.w3.org/2000/svg" xmlns:xlink="http://www.w3.org/1999/xlink">
    <!-- Generator: Sketch 52.1 (67048) - http://www.bohemiancoding.com/sketch -->
    <title>Group</title>
    <desc>Created with Sketch.</desc>
    <g id="Page-1" stroke="none" stroke-width="1" fill="none" fill-rule="evenodd">
        <g id="Charte-graphique" transform="translate(-37.000000, -137.000000)">
            <g id="Group" transform="translate(37.000000, 137.000000)">
                <path d="M114,0 L114,112.593038 L76.3178234,140 L76.3178234,112.593038 L38.430554,140 L38.430554,112.593038 L0,140 L0,41.1298672 L42.2078133,41.1298672 L42.2078133,0 L114,0 Z M35.0983733,0 L36.0121612,0 L36.0121612,34.9456567 L0.0880622886,34.9456567 L35.0983733,0 Z M152.1,7.809 L161.448,7.809 L151.53,36.309 L144.918,36.309 L135,7.809 L144.291,7.809 L148.224,21.147 L152.1,7.809 Z M172.506,22.002 C172.506,25.365 175.128,27.987 178.491,27.987 C181.74,27.987 184.419,25.365 184.419,22.002 C184.419,18.753 181.74,16.074 178.491,16.074 C175.128,16.074 172.506,18.753 172.506,22.002 Z M163.785,22.002 C163.785,13.908 170.283,7.353 178.491,7.353 C186.585,7.353 193.14,13.908 193.14,22.002 C193.14,30.21 186.585,36.765 178.491,36.765 C170.283,36.765 163.785,30.21 163.785,22.002 Z M203.172,7.809 L203.172,0 L211.836,0 L211.836,7.809 L218.106,7.809 L218.106,15.732 L211.836,15.732 L211.836,36.309 L203.172,36.309 L203.172,15.732 L196.731,15.732 L196.731,7.809 L203.172,7.809 Z M221.925,36.309 L221.925,7.695 L228.993,7.695 L228.993,8.778 C230.646,7.695 232.869,7.353 234.693,7.353 L239.196,7.353 L239.196,16.131 L234.693,16.131 C232.47,16.131 230.646,17.727 230.646,19.836 L230.646,36.309 L221.925,36.309 Z M257.664,28.557 C260.058,28.557 262.623,27.873 265.131,26.676 L267.981,33.516 C263.877,36.252 260.514,36.765 256.98,36.765 C248.772,36.765 242.217,30.21 242.217,22.002 C242.217,13.908 248.772,7.41 256.866,7.41 C265.758,7.41 269.577,14.991 269.577,21.603 C269.577,22.572 269.52,23.712 269.292,25.023 L251.85,25.023 C252.477,27.132 254.529,28.557 257.664,28.557 Z M256.467,15.732 C254.13,15.732 252.477,17.157 251.907,18.468 L260.799,18.468 C260.628,17.157 259.146,15.732 256.467,15.732 Z M137.394,136.832 C137.394,134.837 138.99,132.842 141.327,132.842 C143.436,132.842 145.032,134.837 145.032,136.832 C145.032,138.884 143.436,140.537 141.327,140.537 C138.99,140.537 137.394,138.884 137.394,136.832 Z M164.184,111.353 C169.257,111.353 174.045,114.545 176.61,118.364 L170.226,123.095 L169.029,122.069 C167.718,120.872 166.293,120.074 164.298,120.074 C160.935,120.074 158.313,122.753 158.313,126.002 C158.313,129.365 160.935,131.987 164.298,131.987 C166.521,131.987 168.174,130.733 169.941,128.282 L177.579,132.101 C174.843,137.231 169.884,140.765 164.184,140.765 C155.976,140.765 149.421,134.21 149.421,126.002 C149.421,117.908 155.976,111.353 164.184,111.353 Z M189.549,126.002 C189.549,129.365 192.171,131.987 195.534,131.987 C198.783,131.987 201.462,129.365 201.462,126.002 C201.462,122.753 198.783,120.074 195.534,120.074 C192.171,120.074 189.549,122.753 189.549,126.002 Z M180.828,126.002 C180.828,117.908 187.326,111.353 195.534,111.353 C203.628,111.353 210.183,117.908 210.183,126.002 C210.183,134.21 203.628,140.765 195.534,140.765 C187.326,140.765 180.828,134.21 180.828,126.002 Z M214.629,140.309 L214.629,111.695 L221.697,111.695 L221.697,112.778 C223.35,111.695 225.573,111.353 227.397,111.353 C230.817,111.353 233.724,112.322 235.833,113.861 C238.056,112.322 240.849,111.353 244.269,111.353 C252.306,111.353 257.037,115.913 257.037,124.064 L257.037,140.309 L248.373,140.309 L248.373,124.178 C248.373,121.898 246.492,120.074 244.269,120.074 C242.16,120.074 240.393,121.67 240.222,123.893 L240.222,140.309 L231.501,140.309 L231.501,124.178 C231.501,121.898 229.677,120.074 227.397,120.074 C225.288,120.074 223.521,121.67 223.35,123.893 L223.35,140.309 L214.629,140.309 Z" id="Combined-Shape" fill="#272724" fill-rule="nonzero"></path>
                <path d="M289.926,36.309 L289.926,7.695 L296.994,7.695 L296.994,8.778 C298.647,7.695 300.87,7.353 302.694,7.353 L307.197,7.353 L307.197,16.131 L302.694,16.131 C300.471,16.131 298.647,17.727 298.647,19.836 L298.647,36.309 L289.926,36.309 Z M336.666,7.809 L336.666,36.48 L329.598,36.48 L329.598,35.34 C327.945,36.423 325.722,36.765 323.898,36.765 C315.861,36.765 311.13,32.205 311.13,24.054 L311.13,7.809 L319.794,7.809 L319.794,23.94 C319.794,26.22 321.675,28.044 323.898,28.044 C326.007,28.044 327.774,26.448 327.945,24.225 L327.945,7.809 L336.666,7.809 Z M341.682,47.481 L341.682,7.638 L349.092,7.638 L349.092,9.291 C351.144,8.208 353.709,7.353 356.502,7.353 C364.539,7.353 371.208,14.022 371.208,22.059 C371.208,30.096 364.539,36.765 356.502,36.765 C354.279,36.765 352.227,36.252 350.403,35.397 L350.403,47.481 L341.682,47.481 Z M362.544,22.059 C362.544,18.639 359.865,15.96 356.502,15.96 C353.082,15.96 350.46,18.639 350.46,22.059 C350.46,25.479 353.082,28.158 356.502,28.158 C359.865,28.158 362.544,25.479 362.544,22.059 Z M381.639,7.809 L381.639,-2.84217094e-14 L390.303,-2.84217094e-14 L390.303,7.809 L396.573,7.809 L396.573,15.732 L390.303,15.732 L390.303,36.309 L381.639,36.309 L381.639,15.732 L375.198,15.732 L375.198,7.809 L381.639,7.809 Z M426.042,7.809 L426.042,36.48 L418.974,36.48 L418.974,35.34 C417.321,36.423 415.098,36.765 413.274,36.765 C405.237,36.765 400.506,32.205 400.506,24.054 L400.506,7.809 L409.17,7.809 L409.17,23.94 C409.17,26.22 411.051,28.044 413.274,28.044 C415.383,28.044 417.15,26.448 417.321,24.225 L417.321,7.809 L426.042,7.809 Z M430.887,36.309 L430.887,7.695 L437.955,7.695 L437.955,8.778 C439.608,7.695 441.831,7.353 443.655,7.353 L448.158,7.353 L448.158,16.131 L443.655,16.131 C441.432,16.131 439.608,17.727 439.608,19.836 L439.608,36.309 L430.887,36.309 Z M466.626,28.557 C469.02,28.557 471.585,27.873 474.093,26.676 L476.943,33.516 C472.839,36.252 469.476,36.765 465.942,36.765 C457.734,36.765 451.179,30.21 451.179,22.002 C451.179,13.908 457.734,7.41 465.828,7.41 C474.72,7.41 478.539,14.991 478.539,21.603 C478.539,22.572 478.482,23.712 478.254,25.023 L460.812,25.023 C461.439,27.132 463.491,28.557 466.626,28.557 Z M465.429,15.732 C463.092,15.732 461.439,17.157 460.869,18.468 L469.761,18.468 C469.59,17.157 468.108,15.732 465.429,15.732 Z M151.245,59.353 C156.318,59.353 161.106,62.545 163.671,66.364 L157.287,71.095 L156.09,70.069 C154.779,68.872 153.354,68.074 151.359,68.074 C147.996,68.074 145.374,70.753 145.374,74.002 C145.374,77.365 147.996,79.987 151.359,79.987 C153.582,79.987 155.235,78.733 157.002,76.282 L164.64,80.101 C161.904,85.231 156.945,88.765 151.245,88.765 C143.037,88.765 136.482,82.21 136.482,74.002 C136.482,65.908 143.037,59.353 151.245,59.353 Z M168.279,74.002 C168.279,65.908 174.777,59.353 182.985,59.353 C191.079,59.353 197.634,65.908 197.634,74.002 C197.634,82.21 191.079,88.765 182.985,88.765 C174.777,88.765 168.279,82.21 168.279,74.002 Z M177,74.002 C177,77.365 179.622,79.987 182.985,79.987 C186.234,79.987 188.913,77.365 188.913,74.002 C188.913,70.753 186.234,68.074 182.985,68.074 C179.622,68.074 177,70.753 177,74.002 Z M202.299,88.309 L202.299,59.695 L209.367,59.695 L209.367,60.778 C210.963,59.695 213.186,59.353 215.067,59.353 C223.104,59.353 227.835,63.913 227.835,72.064 L227.835,88.309 L219.114,88.309 L219.114,72.178 C219.114,69.898 217.29,68.074 215.067,68.074 C212.958,68.074 211.134,69.67 210.963,71.893 L210.963,88.309 L202.299,88.309 Z M247.035,59.809 L256.383,59.809 L246.465,88.309 L239.853,88.309 L229.935,59.809 L239.226,59.809 L243.159,73.147 L247.035,59.809 Z M272.391,80.557 C274.785,80.557 277.35,79.873 279.858,78.676 L282.708,85.516 C278.604,88.252 275.241,88.765 271.707,88.765 C263.499,88.765 256.944,82.21 256.944,74.002 C256.944,65.908 263.499,59.41 271.593,59.41 C280.485,59.41 284.304,66.991 284.304,73.603 C284.304,74.572 284.247,75.712 284.019,77.023 L266.577,77.023 C267.204,79.132 269.256,80.557 272.391,80.557 Z M271.194,67.732 C268.857,67.732 267.204,69.157 266.634,70.468 L275.526,70.468 C275.355,69.157 273.873,67.732 271.194,67.732 Z M288.342,88.309 L288.342,59.695 L295.41,59.695 L295.41,60.778 C297.006,59.695 299.229,59.353 301.11,59.353 C309.147,59.353 313.878,63.913 313.878,72.064 L313.878,88.309 L305.157,88.309 L305.157,72.178 C305.157,69.898 303.333,68.074 301.11,68.074 C299.001,68.074 297.177,69.67 297.006,71.893 L297.006,88.309 L288.342,88.309 Z M322.875,59.809 L322.875,52 L331.539,52 L331.539,59.809 L337.809,59.809 L337.809,67.732 L331.539,67.732 L331.539,88.309 L322.875,88.309 L322.875,67.732 L316.434,67.732 L316.434,59.809 L322.875,59.809 Z M341.961,54.451 C341.961,52.171 343.899,50.119 346.35,50.119 C348.63,50.119 350.739,52.228 350.739,54.451 C350.739,56.959 348.63,58.897 346.35,58.897 C343.899,58.897 341.961,56.902 341.961,54.451 Z M341.961,88.309 L341.961,59.809 L350.682,59.809 L350.682,88.309 L341.961,88.309 Z M354.663,74.002 C354.663,65.908 361.161,59.353 369.369,59.353 C377.463,59.353 384.018,65.908 384.018,74.002 C384.018,82.21 377.463,88.765 369.369,88.765 C361.161,88.765 354.663,82.21 354.663,74.002 Z M363.384,74.002 C363.384,77.365 366.006,79.987 369.369,79.987 C372.618,79.987 375.297,77.365 375.297,74.002 C375.297,70.753 372.618,68.074 369.369,68.074 C366.006,68.074 363.384,70.753 363.384,74.002 Z M388.683,88.309 L388.683,59.695 L395.751,59.695 L395.751,60.778 C397.347,59.695 399.57,59.353 401.451,59.353 C409.488,59.353 414.219,63.913 414.219,72.064 L414.219,88.309 L405.498,88.309 L405.498,72.178 C405.498,69.898 403.674,68.074 401.451,68.074 C399.342,68.074 397.518,69.67 397.347,71.893 L397.347,88.309 L388.683,88.309 Z M419.454,88.309 L419.454,59.695 L426.522,59.695 L426.522,60.778 C428.118,59.695 430.341,59.353 432.222,59.353 C440.259,59.353 444.99,63.913 444.99,72.064 L444.99,88.309 L436.269,88.309 L436.269,72.178 C436.269,69.898 434.445,68.074 432.222,68.074 C430.113,68.074 428.289,69.67 428.118,71.893 L428.118,88.309 L419.454,88.309 Z M464.76,80.557 C467.154,80.557 469.719,79.873 472.227,78.676 L475.077,85.516 C470.973,88.252 467.61,88.765 464.076,88.765 C455.868,88.765 449.313,82.21 449.313,74.002 C449.313,65.908 455.868,59.41 463.962,59.41 C472.854,59.41 476.673,66.991 476.673,73.603 C476.673,74.572 476.616,75.712 476.388,77.023 L458.946,77.023 C459.573,79.132 461.625,80.557 464.76,80.557 Z M463.563,67.732 C461.226,67.732 459.573,69.157 459.003,70.468 L467.895,70.468 C467.724,69.157 466.242,67.732 463.563,67.732 Z M480.825,88.309 L480.825,48.922 L489.546,48.922 L489.546,88.309 L480.825,88.309 Z M494.382,88.309 L494.382,48.922 L503.103,48.922 L503.103,88.309 L494.382,88.309 Z M522.816,80.557 C525.21,80.557 527.775,79.873 530.283,78.676 L533.133,85.516 C529.029,88.252 525.666,88.765 522.132,88.765 C513.924,88.765 507.369,82.21 507.369,74.002 C507.369,65.908 513.924,59.41 522.018,59.41 C530.91,59.41 534.729,66.991 534.729,73.603 C534.729,74.572 534.672,75.712 534.444,77.023 L517.002,77.023 C517.629,79.132 519.681,80.557 522.816,80.557 Z M521.619,67.732 C519.282,67.732 517.629,69.157 517.059,70.468 L525.951,70.468 C525.78,69.157 524.298,67.732 521.619,67.732 Z" id="Combined-Shape" fill="#FC7F0A"></path>
            </g>
        </g>
    </g>
</svg>