<svg xmlns="http://www.w3.org/2000/svg" xmlns:xlink="http://www.w3.org/1999/xlink" width="24" height="24" viewBox="0 0 24 24"><defs><clipPath id="a"><rect width="24" height="24" transform="translate(1047 3375)" fill="#fff"/></clipPath></defs><g transform="translate(-1047 -3375)"><g clip-path="url(#a)"><path d="M20.121,17.1a.467.467,0,1,1-.467-.487A.466.466,0,0,1,20.121,17.1Zm-12.95-.487a.489.489,0,1,0,.454.487A.461.461,0,0,0,7.171,16.608Zm4.9-.013a.386.386,0,0,0-.4.363h.8A.383.383,0,0,0,12.067,16.6Zm4.492.013a.488.488,0,1,0,.467.487A.461.461,0,0,0,16.558,16.608ZM20.971,17.7c0,.012.012.021.012.046s-.012.021-.012.046a.146.146,0,0,0-.021.033.054.054,0,0,1-.046.021c-.012.012-.021.012-.046.012a.083.083,0,0,1-.046-.012c-.012,0-.021-.013-.033-.021s-.021-.021-.021-.033a.076.076,0,0,1-.013-.046c0-.021,0-.033.013-.046a.078.078,0,0,1,.021-.046.146.146,0,0,1,.033-.021.076.076,0,0,1,.046-.012c.021,0,.033,0,.046.012s.033.013.046.021S20.958,17.675,20.971,17.7Zm-.092.058c.021,0,.021-.012.033-.012a.051.051,0,0,0,0-.067c-.012,0-.021-.012-.046-.012H20.8v.146h.033V17.75h.013l.046.058h.033l-.046-.054ZM24,3.375V18.042a2,2,0,0,1-2,2H2a2,2,0,0,1-2-2V3.375a2,2,0,0,1,2-2H22A2,2,0,0,1,24,3.375ZM2.667,9.192A5.768,5.768,0,0,0,11.625,14a6.214,6.214,0,0,1,0-9.6,5.768,5.768,0,0,0-8.958,4.8ZM12,13.725a5.769,5.769,0,0,0,0-9.062A5.769,5.769,0,0,0,12,13.725ZM6.071,16.9a.584.584,0,0,0-.612-.612.6.6,0,0,0-.533.271.552.552,0,0,0-.508-.271.529.529,0,0,0-.442.225v-.183H3.633v1.529h.342c0-.788-.1-1.258.375-1.258.425,0,.342.425.342,1.258h.329c0-.762-.1-1.258.375-1.258.425,0,.342.417.342,1.258h.342V16.9Zm1.871-.571H7.613v.183a.6.6,0,0,0-.487-.225.806.806,0,0,0,0,1.608.578.578,0,0,0,.487-.225v.192h.329ZM9.629,17.4c0-.625-.954-.342-.954-.633,0-.237.5-.2.771-.046l.137-.271c-.392-.254-1.258-.25-1.258.342s.954.346.954.625c0,.262-.562.242-.862.033l-.146.262c.467.317,1.358.25,1.358-.312Zm1.475.387-.092-.283c-.158.087-.508.183-.508-.171v-.692h.546v-.308H10.5v-.467h-.342v.467H9.846v.3h.317v.7c0,.733.721.6.942.454Zm.554-.558H12.8c0-.675-.308-.942-.725-.942a.75.75,0,0,0-.758.8.831.831,0,0,0,1.408.592l-.158-.25C12.246,17.7,11.754,17.675,11.658,17.229Zm2.463-.9a.489.489,0,0,0-.633.183v-.183h-.342v1.529h.342V17a.348.348,0,0,1,.533-.35l.1-.317Zm.442.762c0-.475.483-.629.863-.35l.158-.271a.825.825,0,1,0,0,1.25l-.158-.271C15.042,17.725,14.563,17.563,14.563,17.1Zm2.779-.762H17v.183a.758.758,0,1,0,0,1.158v.192h.342Zm1.4,0a.5.5,0,0,0-.633.183v-.183h-.329v1.529h.329V17a.35.35,0,0,1,.533-.35Zm1.679-.621H20.1v.8a.758.758,0,1,0,0,1.158v.192h.329V15.712Zm.317-3.129v.192h.033v-.192h.079V12.55h-.192v.033h.079Zm.275,5.158A.127.127,0,0,0,21,17.675c-.013-.012-.021-.033-.033-.046s-.033-.021-.046-.033-.046-.012-.067-.012a.443.443,0,0,1-.058.012.218.218,0,0,0-.046.033.065.065,0,0,0-.033.046.127.127,0,0,0-.013.067.121.121,0,0,0,.013.058.065.065,0,0,0,.033.046.144.144,0,0,0,.046.033.113.113,0,0,0,.058.013.127.127,0,0,0,.067-.013c.012-.012.033-.021.046-.033s.021-.033.033-.046A.121.121,0,0,0,21.017,17.742Zm.133-5.2h-.058l-.067.146-.067-.146H20.9v.225h.033V12.6l.067.146h.046L21.1,12.6v.171h.046Zm.183-3.354a5.768,5.768,0,0,0-8.958-4.8,6.214,6.214,0,0,1,0,9.6,5.768,5.768,0,0,0,8.958-4.8Z" transform="translate(1047 3376.292)" fill="#fff"/></g></g></svg>