<svg xmlns="http://www.w3.org/2000/svg" xmlns:xlink="http://www.w3.org/1999/xlink" width="24" height="24" viewBox="0 0 24 24"><defs><clipPath id="a"><rect width="24" height="24" transform="translate(1008 3375)" fill="#fff"/></clipPath></defs><g transform="translate(-1008 -3375)"><g clip-path="url(#a)"><path d="M19.588,9.638s.317,1.55.387,1.875H18.583c.137-.371.667-1.813.667-1.813s.138-.379.221-.621l.117.558ZM24,3.333V18a2,2,0,0,1-2,2H2a2,2,0,0,1-2-2V3.333a2,2,0,0,1,2-2H22A2,2,0,0,1,24,3.333ZM6.354,13.8,8.988,7.333H7.217L5.579,11.75l-.179-.9L4.817,7.879a.7.7,0,0,0-.758-.546h-2.7l-.029.129a6.612,6.612,0,0,1,1.758.713L4.583,13.8Zm3.933.008,1.05-6.475H9.663L8.617,13.808h1.671Zm5.829-2.117c.008-.738-.442-1.3-1.4-1.762-.588-.3-.946-.5-.946-.8.008-.275.3-.558.963-.558a2.871,2.871,0,0,1,1.246.246l.15.071.229-1.4a4.161,4.161,0,0,0-1.5-.275c-1.654,0-2.817.883-2.825,2.142-.012.929.833,1.446,1.467,1.758s.867.525.867.8c-.008.433-.525.633-1,.633a3.338,3.338,0,0,1-1.571-.346l-.221-.1-.233,1.454A5.113,5.113,0,0,0,13.2,13.9c1.758,0,2.9-.867,2.917-2.208ZM22,13.808,20.65,7.333h-1.3a.824.824,0,0,0-.875.537l-2.488,5.937H17.75s.288-.8.35-.971h2.15c.05.229.2.971.2.971Z" transform="translate(1008 3376.333)" fill="#fff"/></g></g></svg>